<mxfile host="app.diagrams.net" modified="2020-11-25T21:42:28.615Z" agent="5.0 (Windows NT 10.0; Win64; x64) AppleWebKit/537.36 (KHTML, like Gecko) Chrome/87.0.4280.66 Safari/537.36" etag="IgNnfYJZ7szFP2KMhajD" version="13.10.2" type="github">
  <diagram id="_5e5nrNehaMYuaCpqsco" name="Page-1">
    <mxGraphModel dx="1102" dy="582" grid="1" gridSize="10" guides="1" tooltips="1" connect="1" arrows="1" fold="1" page="1" pageScale="1" pageWidth="827" pageHeight="1169" math="0" shadow="0">
      <root>
        <mxCell id="0" />
        <mxCell id="1" parent="0" />
        <mxCell id="ofj8reij5MW94TYRQW6C-4" value="articulos" style="swimlane;fontStyle=0;childLayout=stackLayout;horizontal=1;startSize=26;horizontalStack=0;resizeParent=1;resizeParentMax=0;resizeLast=0;collapsible=1;marginBottom=0;align=center;fontSize=14;" vertex="1" parent="1">
          <mxGeometry x="20" y="120" width="160" height="640" as="geometry" />
        </mxCell>
        <mxCell id="ofj8reij5MW94TYRQW6C-59" value="" style="shape=table;startSize=0;container=1;collapsible=1;childLayout=tableLayout;fixedRows=1;rowLines=0;fontStyle=0;align=center;resizeLast=1;strokeColor=none;fillColor=none;" vertex="1" parent="ofj8reij5MW94TYRQW6C-4">
          <mxGeometry y="26" width="160" height="30" as="geometry" />
        </mxCell>
        <mxCell id="ofj8reij5MW94TYRQW6C-60" value="" style="shape=partialRectangle;collapsible=0;dropTarget=0;pointerEvents=0;fillColor=none;top=0;left=0;bottom=1;right=0;points=[[0,0.5],[1,0.5]];portConstraint=eastwest;" vertex="1" parent="ofj8reij5MW94TYRQW6C-59">
          <mxGeometry width="160" height="30" as="geometry" />
        </mxCell>
        <mxCell id="ofj8reij5MW94TYRQW6C-61" value="PK" style="shape=partialRectangle;connectable=0;fillColor=none;top=0;left=0;bottom=0;right=0;fontStyle=1;overflow=hidden;" vertex="1" parent="ofj8reij5MW94TYRQW6C-60">
          <mxGeometry width="30" height="30" as="geometry" />
        </mxCell>
        <mxCell id="ofj8reij5MW94TYRQW6C-62" value="cod_articuloÂ " style="shape=partialRectangle;connectable=0;fillColor=none;top=0;left=0;bottom=0;right=0;align=left;spacingLeft=6;fontStyle=5;overflow=hidden;" vertex="1" parent="ofj8reij5MW94TYRQW6C-60">
          <mxGeometry x="30" width="130" height="30" as="geometry" />
        </mxCell>
        <mxCell id="ofj8reij5MW94TYRQW6C-6" value="descripcion (varchar)" style="text;strokeColor=none;fillColor=none;spacingLeft=4;spacingRight=4;overflow=hidden;rotatable=0;points=[[0,0.5],[1,0.5]];portConstraint=eastwest;fontSize=12;" vertex="1" parent="ofj8reij5MW94TYRQW6C-4">
          <mxGeometry y="56" width="160" height="30" as="geometry" />
        </mxCell>
        <mxCell id="ofj8reij5MW94TYRQW6C-7" value="costo (decimal)&#xa;" style="text;strokeColor=none;fillColor=none;spacingLeft=4;spacingRight=4;overflow=hidden;rotatable=0;points=[[0,0.5],[1,0.5]];portConstraint=eastwest;fontSize=12;" vertex="1" parent="ofj8reij5MW94TYRQW6C-4">
          <mxGeometry y="86" width="160" height="30" as="geometry" />
        </mxCell>
        <mxCell id="ofj8reij5MW94TYRQW6C-8" value="xmenor (decimal)&#xa;" style="text;strokeColor=none;fillColor=none;spacingLeft=4;spacingRight=4;overflow=hidden;rotatable=0;points=[[0,0.5],[1,0.5]];portConstraint=eastwest;fontSize=12;" vertex="1" parent="ofj8reij5MW94TYRQW6C-4">
          <mxGeometry y="116" width="160" height="30" as="geometry" />
        </mxCell>
        <mxCell id="ofj8reij5MW94TYRQW6C-9" value="xmayor (decimal)&#xa;" style="text;strokeColor=none;fillColor=none;spacingLeft=4;spacingRight=4;overflow=hidden;rotatable=0;points=[[0,0.5],[1,0.5]];portConstraint=eastwest;fontSize=12;" vertex="1" parent="ofj8reij5MW94TYRQW6C-4">
          <mxGeometry y="146" width="160" height="30" as="geometry" />
        </mxCell>
        <mxCell id="ofj8reij5MW94TYRQW6C-10" value="xcaja (decimal)&#xa;" style="text;strokeColor=none;fillColor=none;spacingLeft=4;spacingRight=4;overflow=hidden;rotatable=0;points=[[0,0.5],[1,0.5]];portConstraint=eastwest;fontSize=12;" vertex="1" parent="ofj8reij5MW94TYRQW6C-4">
          <mxGeometry y="176" width="160" height="26" as="geometry" />
        </mxCell>
        <mxCell id="ofj8reij5MW94TYRQW6C-11" value="unidades_bulto (int)" style="text;strokeColor=none;fillColor=none;spacingLeft=4;spacingRight=4;overflow=hidden;rotatable=0;points=[[0,0.5],[1,0.5]];portConstraint=eastwest;fontSize=12;" vertex="1" parent="ofj8reij5MW94TYRQW6C-4">
          <mxGeometry y="202" width="160" height="30" as="geometry" />
        </mxCell>
        <mxCell id="ofj8reij5MW94TYRQW6C-12" value="stock (int)" style="text;strokeColor=none;fillColor=none;spacingLeft=4;spacingRight=4;overflow=hidden;rotatable=0;points=[[0,0.5],[1,0.5]];portConstraint=eastwest;fontSize=12;" vertex="1" parent="ofj8reij5MW94TYRQW6C-4">
          <mxGeometry y="232" width="160" height="30" as="geometry" />
        </mxCell>
        <mxCell id="ofj8reij5MW94TYRQW6C-13" value="stock_minimo (int)" style="text;strokeColor=none;fillColor=none;spacingLeft=4;spacingRight=4;overflow=hidden;rotatable=0;points=[[0,0.5],[1,0.5]];portConstraint=eastwest;fontSize=12;" vertex="1" parent="ofj8reij5MW94TYRQW6C-4">
          <mxGeometry y="262" width="160" height="30" as="geometry" />
        </mxCell>
        <mxCell id="ofj8reij5MW94TYRQW6C-14" value="estado (int)" style="text;strokeColor=none;fillColor=none;spacingLeft=4;spacingRight=4;overflow=hidden;rotatable=0;points=[[0,0.5],[1,0.5]];portConstraint=eastwest;fontSize=12;" vertex="1" parent="ofj8reij5MW94TYRQW6C-4">
          <mxGeometry y="292" width="160" height="30" as="geometry" />
        </mxCell>
        <mxCell id="ofj8reij5MW94TYRQW6C-15" value="ultima_compra (date)" style="text;strokeColor=none;fillColor=none;spacingLeft=4;spacingRight=4;overflow=hidden;rotatable=0;points=[[0,0.5],[1,0.5]];portConstraint=eastwest;fontSize=12;" vertex="1" parent="ofj8reij5MW94TYRQW6C-4">
          <mxGeometry y="322" width="160" height="30" as="geometry" />
        </mxCell>
        <mxCell id="ofj8reij5MW94TYRQW6C-16" value="dolar_compra (decimal)" style="text;strokeColor=none;fillColor=none;spacingLeft=4;spacingRight=4;overflow=hidden;rotatable=0;points=[[0,0.5],[1,0.5]];portConstraint=eastwest;fontSize=12;" vertex="1" parent="ofj8reij5MW94TYRQW6C-4">
          <mxGeometry y="352" width="160" height="30" as="geometry" />
        </mxCell>
        <mxCell id="ofj8reij5MW94TYRQW6C-17" value="impuestos_internos (decimal)" style="text;strokeColor=none;fillColor=none;spacingLeft=4;spacingRight=4;overflow=hidden;rotatable=0;points=[[0,0.5],[1,0.5]];portConstraint=eastwest;fontSize=12;" vertex="1" parent="ofj8reij5MW94TYRQW6C-4">
          <mxGeometry y="382" width="160" height="30" as="geometry" />
        </mxCell>
        <mxCell id="ofj8reij5MW94TYRQW6C-26" value="imagrn_ch (varchar)" style="text;strokeColor=none;fillColor=none;spacingLeft=4;spacingRight=4;overflow=hidden;rotatable=0;points=[[0,0.5],[1,0.5]];portConstraint=eastwest;fontSize=12;" vertex="1" parent="ofj8reij5MW94TYRQW6C-4">
          <mxGeometry y="412" width="160" height="28" as="geometry" />
        </mxCell>
        <mxCell id="ofj8reij5MW94TYRQW6C-27" value="imagen_gr (varchar)" style="text;strokeColor=none;fillColor=none;spacingLeft=4;spacingRight=4;overflow=hidden;rotatable=0;points=[[0,0.5],[1,0.5]];portConstraint=eastwest;fontSize=12;" vertex="1" parent="ofj8reij5MW94TYRQW6C-4">
          <mxGeometry y="440" width="160" height="28" as="geometry" />
        </mxCell>
        <mxCell id="ofj8reij5MW94TYRQW6C-18" value="id_categoria (int)" style="text;strokeColor=none;fillColor=none;spacingLeft=4;spacingRight=4;overflow=hidden;rotatable=0;points=[[0,0.5],[1,0.5]];portConstraint=eastwest;fontSize=12;" vertex="1" parent="ofj8reij5MW94TYRQW6C-4">
          <mxGeometry y="468" width="160" height="30" as="geometry" />
        </mxCell>
        <mxCell id="ofj8reij5MW94TYRQW6C-21" value="id_subcategoria (int)" style="text;strokeColor=none;fillColor=none;spacingLeft=4;spacingRight=4;overflow=hidden;rotatable=0;points=[[0,0.5],[1,0.5]];portConstraint=eastwest;fontSize=12;" vertex="1" parent="ofj8reij5MW94TYRQW6C-4">
          <mxGeometry y="498" width="160" height="30" as="geometry" />
        </mxCell>
        <mxCell id="ofj8reij5MW94TYRQW6C-22" value="id_marca (int)" style="text;strokeColor=none;fillColor=none;spacingLeft=4;spacingRight=4;overflow=hidden;rotatable=0;points=[[0,0.5],[1,0.5]];portConstraint=eastwest;fontSize=12;" vertex="1" parent="ofj8reij5MW94TYRQW6C-4">
          <mxGeometry y="528" width="160" height="28" as="geometry" />
        </mxCell>
        <mxCell id="ofj8reij5MW94TYRQW6C-25" value="id_tipo (int)" style="text;strokeColor=none;fillColor=none;spacingLeft=4;spacingRight=4;overflow=hidden;rotatable=0;points=[[0,0.5],[1,0.5]];portConstraint=eastwest;fontSize=12;" vertex="1" parent="ofj8reij5MW94TYRQW6C-4">
          <mxGeometry y="556" width="160" height="28" as="geometry" />
        </mxCell>
        <mxCell id="ofj8reij5MW94TYRQW6C-23" value="id_proveedor (int)" style="text;strokeColor=none;fillColor=none;spacingLeft=4;spacingRight=4;overflow=hidden;rotatable=0;points=[[0,0.5],[1,0.5]];portConstraint=eastwest;fontSize=12;" vertex="1" parent="ofj8reij5MW94TYRQW6C-4">
          <mxGeometry y="584" width="160" height="28" as="geometry" />
        </mxCell>
        <mxCell id="ofj8reij5MW94TYRQW6C-24" value="id_iva (int)" style="text;strokeColor=none;fillColor=none;spacingLeft=4;spacingRight=4;overflow=hidden;rotatable=0;points=[[0,0.5],[1,0.5]];portConstraint=eastwest;fontSize=12;" vertex="1" parent="ofj8reij5MW94TYRQW6C-4">
          <mxGeometry y="612" width="160" height="28" as="geometry" />
        </mxCell>
        <mxCell id="ofj8reij5MW94TYRQW6C-28" value="categorias" style="swimlane;fontStyle=0;childLayout=stackLayout;horizontal=1;startSize=20;horizontalStack=0;resizeParent=1;resizeParentMax=0;resizeLast=0;collapsible=1;marginBottom=0;align=center;fontSize=14;" vertex="1" parent="1">
          <mxGeometry x="220" y="240" width="160" height="80" as="geometry" />
        </mxCell>
        <mxCell id="ofj8reij5MW94TYRQW6C-80" value="" style="shape=table;startSize=0;container=1;collapsible=1;childLayout=tableLayout;fixedRows=1;rowLines=0;fontStyle=0;align=center;resizeLast=1;strokeColor=none;fillColor=none;" vertex="1" parent="ofj8reij5MW94TYRQW6C-28">
          <mxGeometry y="20" width="160" height="30" as="geometry" />
        </mxCell>
        <mxCell id="ofj8reij5MW94TYRQW6C-81" value="" style="shape=partialRectangle;collapsible=0;dropTarget=0;pointerEvents=0;fillColor=none;top=0;left=0;bottom=1;right=0;points=[[0,0.5],[1,0.5]];portConstraint=eastwest;" vertex="1" parent="ofj8reij5MW94TYRQW6C-80">
          <mxGeometry width="160" height="30" as="geometry" />
        </mxCell>
        <mxCell id="ofj8reij5MW94TYRQW6C-82" value="PK" style="shape=partialRectangle;connectable=0;fillColor=none;top=0;left=0;bottom=0;right=0;fontStyle=1;overflow=hidden;" vertex="1" parent="ofj8reij5MW94TYRQW6C-81">
          <mxGeometry width="30" height="30" as="geometry" />
        </mxCell>
        <mxCell id="ofj8reij5MW94TYRQW6C-83" value="id_categoria (int)" style="shape=partialRectangle;connectable=0;fillColor=none;top=0;left=0;bottom=0;right=0;align=left;spacingLeft=6;fontStyle=5;overflow=hidden;" vertex="1" parent="ofj8reij5MW94TYRQW6C-81">
          <mxGeometry x="30" width="130" height="30" as="geometry" />
        </mxCell>
        <mxCell id="ofj8reij5MW94TYRQW6C-31" value="categoria (varchar)" style="text;strokeColor=none;fillColor=none;spacingLeft=4;spacingRight=4;overflow=hidden;rotatable=0;points=[[0,0.5],[1,0.5]];portConstraint=eastwest;fontSize=12;" vertex="1" parent="ofj8reij5MW94TYRQW6C-28">
          <mxGeometry y="50" width="160" height="30" as="geometry" />
        </mxCell>
        <mxCell id="ofj8reij5MW94TYRQW6C-32" value="subcategoria" style="swimlane;fontStyle=0;childLayout=stackLayout;horizontal=1;startSize=26;horizontalStack=0;resizeParent=1;resizeParentMax=0;resizeLast=0;collapsible=1;marginBottom=0;align=center;fontSize=14;" vertex="1" parent="1">
          <mxGeometry x="420" y="240" width="160" height="86" as="geometry" />
        </mxCell>
        <mxCell id="ofj8reij5MW94TYRQW6C-34" value="PK id_subcategoria (iint)" style="text;strokeColor=none;fillColor=none;spacingLeft=4;spacingRight=4;overflow=hidden;rotatable=0;points=[[0,0.5],[1,0.5]];portConstraint=eastwest;fontSize=12;" vertex="1" parent="ofj8reij5MW94TYRQW6C-32">
          <mxGeometry y="26" width="160" height="30" as="geometry" />
        </mxCell>
        <mxCell id="ofj8reij5MW94TYRQW6C-35" value="subcategoria (varchar)" style="text;strokeColor=none;fillColor=none;spacingLeft=4;spacingRight=4;overflow=hidden;rotatable=0;points=[[0,0.5],[1,0.5]];portConstraint=eastwest;fontSize=12;" vertex="1" parent="ofj8reij5MW94TYRQW6C-32">
          <mxGeometry y="56" width="160" height="30" as="geometry" />
        </mxCell>
        <mxCell id="ofj8reij5MW94TYRQW6C-36" value="marca" style="swimlane;fontStyle=0;childLayout=stackLayout;horizontal=1;startSize=26;horizontalStack=0;resizeParent=1;resizeParentMax=0;resizeLast=0;collapsible=1;marginBottom=0;align=center;fontSize=14;" vertex="1" parent="1">
          <mxGeometry x="640" y="240" width="160" height="86" as="geometry" />
        </mxCell>
        <mxCell id="ofj8reij5MW94TYRQW6C-37" value="PK id_marca (int)" style="text;strokeColor=none;fillColor=none;spacingLeft=4;spacingRight=4;overflow=hidden;rotatable=0;points=[[0,0.5],[1,0.5]];portConstraint=eastwest;fontSize=12;" vertex="1" parent="ofj8reij5MW94TYRQW6C-36">
          <mxGeometry y="26" width="160" height="30" as="geometry" />
        </mxCell>
        <mxCell id="ofj8reij5MW94TYRQW6C-38" value="marca (varchar)" style="text;strokeColor=none;fillColor=none;spacingLeft=4;spacingRight=4;overflow=hidden;rotatable=0;points=[[0,0.5],[1,0.5]];portConstraint=eastwest;fontSize=12;" vertex="1" parent="ofj8reij5MW94TYRQW6C-36">
          <mxGeometry y="56" width="160" height="30" as="geometry" />
        </mxCell>
        <mxCell id="ofj8reij5MW94TYRQW6C-40" value="tipo" style="swimlane;fontStyle=0;childLayout=stackLayout;horizontal=1;startSize=26;horizontalStack=0;resizeParent=1;resizeParentMax=0;resizeLast=0;collapsible=1;marginBottom=0;align=center;fontSize=14;" vertex="1" parent="1">
          <mxGeometry x="580" y="380" width="160" height="86" as="geometry" />
        </mxCell>
        <mxCell id="ofj8reij5MW94TYRQW6C-42" value="PK id_tipo (int)" style="text;strokeColor=none;fillColor=none;spacingLeft=4;spacingRight=4;overflow=hidden;rotatable=0;points=[[0,0.5],[1,0.5]];portConstraint=eastwest;fontSize=12;" vertex="1" parent="ofj8reij5MW94TYRQW6C-40">
          <mxGeometry y="26" width="160" height="30" as="geometry" />
        </mxCell>
        <mxCell id="ofj8reij5MW94TYRQW6C-43" value="tipo" style="text;strokeColor=none;fillColor=none;spacingLeft=4;spacingRight=4;overflow=hidden;rotatable=0;points=[[0,0.5],[1,0.5]];portConstraint=eastwest;fontSize=12;" vertex="1" parent="ofj8reij5MW94TYRQW6C-40">
          <mxGeometry y="56" width="160" height="30" as="geometry" />
        </mxCell>
        <mxCell id="ofj8reij5MW94TYRQW6C-44" value="proveedores" style="swimlane;fontStyle=0;childLayout=stackLayout;horizontal=1;startSize=26;horizontalStack=0;resizeParent=1;resizeParentMax=0;resizeLast=0;collapsible=1;marginBottom=0;align=center;fontSize=14;" vertex="1" parent="1">
          <mxGeometry x="540" y="520" width="160" height="176" as="geometry" />
        </mxCell>
        <mxCell id="ofj8reij5MW94TYRQW6C-45" value="PK id_proveedor (int)" style="text;strokeColor=none;fillColor=none;spacingLeft=4;spacingRight=4;overflow=hidden;rotatable=0;points=[[0,0.5],[1,0.5]];portConstraint=eastwest;fontSize=12;" vertex="1" parent="ofj8reij5MW94TYRQW6C-44">
          <mxGeometry y="26" width="160" height="30" as="geometry" />
        </mxCell>
        <mxCell id="ofj8reij5MW94TYRQW6C-46" value="nombre (varchar)" style="text;strokeColor=none;fillColor=none;spacingLeft=4;spacingRight=4;overflow=hidden;rotatable=0;points=[[0,0.5],[1,0.5]];portConstraint=eastwest;fontSize=12;" vertex="1" parent="ofj8reij5MW94TYRQW6C-44">
          <mxGeometry y="56" width="160" height="30" as="geometry" />
        </mxCell>
        <mxCell id="ofj8reij5MW94TYRQW6C-47" value="contacto (varchar)" style="text;strokeColor=none;fillColor=none;spacingLeft=4;spacingRight=4;overflow=hidden;rotatable=0;points=[[0,0.5],[1,0.5]];portConstraint=eastwest;fontSize=12;" vertex="1" parent="ofj8reij5MW94TYRQW6C-44">
          <mxGeometry y="86" width="160" height="30" as="geometry" />
        </mxCell>
        <mxCell id="ofj8reij5MW94TYRQW6C-53" value="web (varchar)" style="text;strokeColor=none;fillColor=none;spacingLeft=4;spacingRight=4;overflow=hidden;rotatable=0;points=[[0,0.5],[1,0.5]];portConstraint=eastwest;fontSize=12;" vertex="1" parent="ofj8reij5MW94TYRQW6C-44">
          <mxGeometry y="116" width="160" height="30" as="geometry" />
        </mxCell>
        <mxCell id="ofj8reij5MW94TYRQW6C-54" value="telefono (varchar)" style="text;strokeColor=none;fillColor=none;spacingLeft=4;spacingRight=4;overflow=hidden;rotatable=0;points=[[0,0.5],[1,0.5]];portConstraint=eastwest;fontSize=12;" vertex="1" parent="ofj8reij5MW94TYRQW6C-44">
          <mxGeometry y="146" width="160" height="30" as="geometry" />
        </mxCell>
        <mxCell id="ofj8reij5MW94TYRQW6C-48" value="iva" style="swimlane;fontStyle=0;childLayout=stackLayout;horizontal=1;startSize=26;horizontalStack=0;resizeParent=1;resizeParentMax=0;resizeLast=0;collapsible=1;marginBottom=0;align=center;fontSize=14;" vertex="1" parent="1">
          <mxGeometry x="340" y="670" width="160" height="86" as="geometry" />
        </mxCell>
        <mxCell id="ofj8reij5MW94TYRQW6C-49" value="PK id_iva (int)" style="text;strokeColor=none;fillColor=none;spacingLeft=4;spacingRight=4;overflow=hidden;rotatable=0;points=[[0,0.5],[1,0.5]];portConstraint=eastwest;fontSize=12;" vertex="1" parent="ofj8reij5MW94TYRQW6C-48">
          <mxGeometry y="26" width="160" height="30" as="geometry" />
        </mxCell>
        <mxCell id="ofj8reij5MW94TYRQW6C-50" value="iva (decimal)" style="text;strokeColor=none;fillColor=none;spacingLeft=4;spacingRight=4;overflow=hidden;rotatable=0;points=[[0,0.5],[1,0.5]];portConstraint=eastwest;fontSize=12;" vertex="1" parent="ofj8reij5MW94TYRQW6C-48">
          <mxGeometry y="56" width="160" height="30" as="geometry" />
        </mxCell>
        <mxCell id="ofj8reij5MW94TYRQW6C-84" value="" style="edgeStyle=entityRelationEdgeStyle;fontSize=12;html=1;endArrow=ERzeroToMany;endFill=1;entryX=1;entryY=0.5;entryDx=0;entryDy=0;exitX=0.006;exitY=0.267;exitDx=0;exitDy=0;exitPerimeter=0;" edge="1" parent="1" source="ofj8reij5MW94TYRQW6C-81" target="ofj8reij5MW94TYRQW6C-18">
          <mxGeometry width="100" height="100" relative="1" as="geometry">
            <mxPoint x="230" y="720" as="sourcePoint" />
            <mxPoint x="370" y="550" as="targetPoint" />
          </mxGeometry>
        </mxCell>
        <mxCell id="ofj8reij5MW94TYRQW6C-86" value="" style="edgeStyle=entityRelationEdgeStyle;fontSize=12;html=1;endArrow=ERzeroToMany;endFill=1;entryX=1;entryY=0.5;entryDx=0;entryDy=0;exitX=0;exitY=0.5;exitDx=0;exitDy=0;" edge="1" parent="1" source="ofj8reij5MW94TYRQW6C-34" target="ofj8reij5MW94TYRQW6C-21">
          <mxGeometry width="100" height="100" relative="1" as="geometry">
            <mxPoint x="360" y="500" as="sourcePoint" />
            <mxPoint x="460" y="400" as="targetPoint" />
          </mxGeometry>
        </mxCell>
        <mxCell id="ofj8reij5MW94TYRQW6C-87" value="" style="edgeStyle=entityRelationEdgeStyle;fontSize=12;html=1;endArrow=ERzeroToMany;endFill=1;entryX=1;entryY=0.5;entryDx=0;entryDy=0;exitX=0;exitY=0.5;exitDx=0;exitDy=0;" edge="1" parent="1" source="ofj8reij5MW94TYRQW6C-37" target="ofj8reij5MW94TYRQW6C-22">
          <mxGeometry width="100" height="100" relative="1" as="geometry">
            <mxPoint x="360" y="700" as="sourcePoint" />
            <mxPoint x="460" y="600" as="targetPoint" />
          </mxGeometry>
        </mxCell>
        <mxCell id="ofj8reij5MW94TYRQW6C-88" value="" style="edgeStyle=entityRelationEdgeStyle;fontSize=12;html=1;endArrow=ERzeroToMany;endFill=1;exitX=0;exitY=0.5;exitDx=0;exitDy=0;" edge="1" parent="1" source="ofj8reij5MW94TYRQW6C-42" target="ofj8reij5MW94TYRQW6C-25">
          <mxGeometry width="100" height="100" relative="1" as="geometry">
            <mxPoint x="450" y="660" as="sourcePoint" />
            <mxPoint x="460" y="500" as="targetPoint" />
          </mxGeometry>
        </mxCell>
        <mxCell id="ofj8reij5MW94TYRQW6C-90" value="" style="edgeStyle=entityRelationEdgeStyle;fontSize=12;html=1;endArrow=ERzeroToMany;endFill=1;entryX=1.031;entryY=0.25;entryDx=0;entryDy=0;entryPerimeter=0;exitX=0;exitY=0.5;exitDx=0;exitDy=0;" edge="1" parent="1" source="ofj8reij5MW94TYRQW6C-45" target="ofj8reij5MW94TYRQW6C-23">
          <mxGeometry width="100" height="100" relative="1" as="geometry">
            <mxPoint x="360" y="700" as="sourcePoint" />
            <mxPoint x="460" y="600" as="targetPoint" />
          </mxGeometry>
        </mxCell>
        <mxCell id="ofj8reij5MW94TYRQW6C-91" value="" style="edgeStyle=entityRelationEdgeStyle;fontSize=12;html=1;endArrow=ERzeroToMany;endFill=1;exitX=0;exitY=0.5;exitDx=0;exitDy=0;" edge="1" parent="1" source="ofj8reij5MW94TYRQW6C-49" target="ofj8reij5MW94TYRQW6C-24">
          <mxGeometry width="100" height="100" relative="1" as="geometry">
            <mxPoint x="360" y="700" as="sourcePoint" />
            <mxPoint x="460" y="600" as="targetPoint" />
          </mxGeometry>
        </mxCell>
      </root>
    </mxGraphModel>
  </diagram>
</mxfile>
